<mxfile host="app.diagrams.net" modified="2022-07-27T01:01:20.839Z" agent="5.0 (Windows NT 10.0; Win64; x64) AppleWebKit/537.36 (KHTML, like Gecko) Chrome/103.0.5060.134 Safari/537.36 Edg/103.0.1264.71" etag="ekpizSis7tfsjocdRRGr" version="20.1.3" type="github">
  <diagram id="lpRpKWqGgVF4kgIsBrET" name="Page-1">
    <mxGraphModel dx="1098" dy="606" grid="1" gridSize="10" guides="1" tooltips="1" connect="1" arrows="1" fold="1" page="1" pageScale="1" pageWidth="850" pageHeight="1100" math="0" shadow="0">
      <root>
        <mxCell id="0" />
        <mxCell id="1" parent="0" />
        <mxCell id="LJxD5BHA2ur4M35lmVV7-1" value="" style="shape=parallelogram;perimeter=parallelogramPerimeter;whiteSpace=wrap;html=1;fixedSize=1;" vertex="1" parent="1">
          <mxGeometry x="10" y="240" width="230" height="90" as="geometry" />
        </mxCell>
        <mxCell id="LJxD5BHA2ur4M35lmVV7-2" value="" style="shape=trapezoid;perimeter=trapezoidPerimeter;whiteSpace=wrap;html=1;fixedSize=1;" vertex="1" parent="1">
          <mxGeometry x="30" y="220" width="100" height="20" as="geometry" />
        </mxCell>
        <mxCell id="LJxD5BHA2ur4M35lmVV7-3" value="" style="shape=parallelogram;perimeter=parallelogramPerimeter;whiteSpace=wrap;html=1;fixedSize=1;" vertex="1" parent="1">
          <mxGeometry x="280" y="240" width="240" height="90" as="geometry" />
        </mxCell>
        <mxCell id="LJxD5BHA2ur4M35lmVV7-4" value="" style="shape=parallelogram;perimeter=parallelogramPerimeter;whiteSpace=wrap;html=1;fixedSize=1;" vertex="1" parent="1">
          <mxGeometry x="560" y="240" width="230" height="90" as="geometry" />
        </mxCell>
        <mxCell id="LJxD5BHA2ur4M35lmVV7-5" value="" style="shape=trapezoid;perimeter=trapezoidPerimeter;whiteSpace=wrap;html=1;fixedSize=1;" vertex="1" parent="1">
          <mxGeometry x="300" y="220" width="110" height="20" as="geometry" />
        </mxCell>
        <mxCell id="LJxD5BHA2ur4M35lmVV7-6" value="" style="shape=trapezoid;perimeter=trapezoidPerimeter;whiteSpace=wrap;html=1;fixedSize=1;" vertex="1" parent="1">
          <mxGeometry x="580" y="220" width="110" height="20" as="geometry" />
        </mxCell>
        <mxCell id="LJxD5BHA2ur4M35lmVV7-7" value="" style="shape=parallelogram;perimeter=parallelogramPerimeter;whiteSpace=wrap;html=1;fixedSize=1;" vertex="1" parent="1">
          <mxGeometry x="120" y="450" width="260" height="110" as="geometry" />
        </mxCell>
        <mxCell id="LJxD5BHA2ur4M35lmVV7-8" value="" style="shape=trapezoid;perimeter=trapezoidPerimeter;whiteSpace=wrap;html=1;fixedSize=1;" vertex="1" parent="1">
          <mxGeometry x="140" y="430" width="120" height="20" as="geometry" />
        </mxCell>
        <mxCell id="LJxD5BHA2ur4M35lmVV7-9" value="" style="shape=parallelogram;perimeter=parallelogramPerimeter;whiteSpace=wrap;html=1;fixedSize=1;" vertex="1" parent="1">
          <mxGeometry x="460" y="450" width="240" height="110" as="geometry" />
        </mxCell>
        <mxCell id="LJxD5BHA2ur4M35lmVV7-11" value="" style="shape=trapezoid;perimeter=trapezoidPerimeter;whiteSpace=wrap;html=1;fixedSize=1;" vertex="1" parent="1">
          <mxGeometry x="480" y="430" width="130" height="20" as="geometry" />
        </mxCell>
        <mxCell id="LJxD5BHA2ur4M35lmVV7-12" value="" style="endArrow=none;dashed=1;html=1;dashPattern=1 3;strokeWidth=2;rounded=0;entryX=0;entryY=0.75;entryDx=0;entryDy=0;startArrow=none;" edge="1" parent="1" source="LJxD5BHA2ur4M35lmVV7-13" target="LJxD5BHA2ur4M35lmVV7-3">
          <mxGeometry width="50" height="50" relative="1" as="geometry">
            <mxPoint x="225" y="310" as="sourcePoint" />
            <mxPoint x="275" y="260" as="targetPoint" />
          </mxGeometry>
        </mxCell>
        <mxCell id="LJxD5BHA2ur4M35lmVV7-13" value="" style="html=1;shadow=0;dashed=0;align=center;verticalAlign=middle;shape=mxgraph.arrows2.arrow;dy=0.6;dx=40;notch=0;" vertex="1" parent="1">
          <mxGeometry x="270" y="300" width="20" height="10" as="geometry" />
        </mxCell>
        <mxCell id="LJxD5BHA2ur4M35lmVV7-14" value="" style="endArrow=none;dashed=1;html=1;dashPattern=1 3;strokeWidth=2;rounded=0;entryX=0;entryY=0.75;entryDx=0;entryDy=0;" edge="1" parent="1" target="LJxD5BHA2ur4M35lmVV7-13">
          <mxGeometry width="50" height="50" relative="1" as="geometry">
            <mxPoint x="225" y="310" as="sourcePoint" />
            <mxPoint x="285.21739130434776" y="306.52173913043475" as="targetPoint" />
          </mxGeometry>
        </mxCell>
        <mxCell id="LJxD5BHA2ur4M35lmVV7-15" value="" style="endArrow=none;dashed=1;html=1;dashPattern=1 3;strokeWidth=2;rounded=0;entryX=0.635;entryY=-0.036;entryDx=0;entryDy=0;entryPerimeter=0;exitX=0.609;exitY=1.022;exitDx=0;exitDy=0;exitPerimeter=0;startArrow=none;" edge="1" parent="1" source="LJxD5BHA2ur4M35lmVV7-16" target="LJxD5BHA2ur4M35lmVV7-7">
          <mxGeometry width="50" height="50" relative="1" as="geometry">
            <mxPoint x="150" y="340" as="sourcePoint" />
            <mxPoint x="200" y="290" as="targetPoint" />
          </mxGeometry>
        </mxCell>
        <mxCell id="LJxD5BHA2ur4M35lmVV7-16" value="" style="html=1;shadow=0;dashed=0;align=center;verticalAlign=middle;shape=mxgraph.arrows2.arrow;dy=0.6;dx=40;direction=south;notch=0;rotation=-45;" vertex="1" parent="1">
          <mxGeometry x="275" y="420" width="10" height="40" as="geometry" />
        </mxCell>
        <mxCell id="LJxD5BHA2ur4M35lmVV7-17" value="" style="endArrow=none;dashed=1;html=1;dashPattern=1 3;strokeWidth=2;rounded=0;entryX=0.635;entryY=-0.036;entryDx=0;entryDy=0;entryPerimeter=0;exitX=0.609;exitY=1.022;exitDx=0;exitDy=0;exitPerimeter=0;" edge="1" parent="1" source="LJxD5BHA2ur4M35lmVV7-1" target="LJxD5BHA2ur4M35lmVV7-16">
          <mxGeometry width="50" height="50" relative="1" as="geometry">
            <mxPoint x="150.06999999999994" y="331.98" as="sourcePoint" />
            <mxPoint x="285.0999999999999" y="446.03999999999996" as="targetPoint" />
          </mxGeometry>
        </mxCell>
        <mxCell id="LJxD5BHA2ur4M35lmVV7-18" value="" style="endArrow=none;dashed=1;html=1;dashPattern=1 3;strokeWidth=2;rounded=0;entryX=0.03;entryY=0.622;entryDx=0;entryDy=0;entryPerimeter=0;startArrow=none;" edge="1" parent="1" source="LJxD5BHA2ur4M35lmVV7-19" target="LJxD5BHA2ur4M35lmVV7-4">
          <mxGeometry width="50" height="50" relative="1" as="geometry">
            <mxPoint x="510" y="300" as="sourcePoint" />
            <mxPoint x="560" y="250" as="targetPoint" />
          </mxGeometry>
        </mxCell>
        <mxCell id="LJxD5BHA2ur4M35lmVV7-19" value="" style="html=1;shadow=0;dashed=0;align=center;verticalAlign=middle;shape=mxgraph.arrows2.arrow;dy=0.6;dx=40;notch=0;" vertex="1" parent="1">
          <mxGeometry x="540" y="290" width="30" height="10" as="geometry" />
        </mxCell>
        <mxCell id="LJxD5BHA2ur4M35lmVV7-20" value="" style="endArrow=none;dashed=1;html=1;dashPattern=1 3;strokeWidth=2;rounded=0;entryX=0.03;entryY=0.622;entryDx=0;entryDy=0;entryPerimeter=0;" edge="1" parent="1" target="LJxD5BHA2ur4M35lmVV7-19">
          <mxGeometry width="50" height="50" relative="1" as="geometry">
            <mxPoint x="510" y="300" as="sourcePoint" />
            <mxPoint x="566.9000000000001" y="295.98" as="targetPoint" />
          </mxGeometry>
        </mxCell>
        <mxCell id="LJxD5BHA2ur4M35lmVV7-21" value="" style="endArrow=none;dashed=1;html=1;dashPattern=1 3;strokeWidth=2;rounded=0;entryX=0.029;entryY=0.627;entryDx=0;entryDy=0;entryPerimeter=0;startArrow=none;" edge="1" parent="1" source="LJxD5BHA2ur4M35lmVV7-22" target="LJxD5BHA2ur4M35lmVV7-9">
          <mxGeometry width="50" height="50" relative="1" as="geometry">
            <mxPoint x="370" y="520" as="sourcePoint" />
            <mxPoint x="420" y="470" as="targetPoint" />
          </mxGeometry>
        </mxCell>
        <mxCell id="LJxD5BHA2ur4M35lmVV7-22" value="" style="html=1;shadow=0;dashed=0;align=center;verticalAlign=middle;shape=mxgraph.arrows2.arrow;dy=0.6;dx=40;notch=0;" vertex="1" parent="1">
          <mxGeometry x="420" y="510" width="50" height="10" as="geometry" />
        </mxCell>
        <mxCell id="LJxD5BHA2ur4M35lmVV7-23" value="" style="endArrow=none;dashed=1;html=1;dashPattern=1 3;strokeWidth=2;rounded=0;entryX=0.029;entryY=0.627;entryDx=0;entryDy=0;entryPerimeter=0;" edge="1" parent="1" target="LJxD5BHA2ur4M35lmVV7-22">
          <mxGeometry width="50" height="50" relative="1" as="geometry">
            <mxPoint x="370" y="520" as="sourcePoint" />
            <mxPoint x="466.96000000000004" y="518.97" as="targetPoint" />
          </mxGeometry>
        </mxCell>
        <mxCell id="LJxD5BHA2ur4M35lmVV7-24" value="" style="endArrow=none;dashed=1;html=1;dashPattern=1 3;strokeWidth=2;rounded=0;entryX=0.533;entryY=1.022;entryDx=0;entryDy=0;entryPerimeter=0;exitX=0;exitY=1;exitDx=0;exitDy=0;startArrow=none;" edge="1" parent="1" source="LJxD5BHA2ur4M35lmVV7-25" target="LJxD5BHA2ur4M35lmVV7-3">
          <mxGeometry width="50" height="50" relative="1" as="geometry">
            <mxPoint x="400" y="390" as="sourcePoint" />
            <mxPoint x="450" y="340" as="targetPoint" />
          </mxGeometry>
        </mxCell>
        <mxCell id="LJxD5BHA2ur4M35lmVV7-25" value="" style="html=1;shadow=0;dashed=0;align=center;verticalAlign=middle;shape=mxgraph.arrows2.arrow;dy=0.6;dx=40;direction=south;notch=0;rotation=-30;" vertex="1" parent="1">
          <mxGeometry x="470" y="410" width="10" height="40" as="geometry" />
        </mxCell>
        <mxCell id="LJxD5BHA2ur4M35lmVV7-26" value="" style="endArrow=none;dashed=1;html=1;dashPattern=1 3;strokeWidth=2;rounded=0;entryX=0.533;entryY=1.022;entryDx=0;entryDy=0;entryPerimeter=0;exitX=0;exitY=1;exitDx=0;exitDy=0;" edge="1" parent="1" source="LJxD5BHA2ur4M35lmVV7-11" target="LJxD5BHA2ur4M35lmVV7-25">
          <mxGeometry width="50" height="50" relative="1" as="geometry">
            <mxPoint x="480" y="450" as="sourcePoint" />
            <mxPoint x="407.9200000000001" y="331.98" as="targetPoint" />
          </mxGeometry>
        </mxCell>
        <mxCell id="LJxD5BHA2ur4M35lmVV7-27" value="" style="endArrow=none;dashed=1;html=1;dashPattern=1 3;strokeWidth=2;rounded=0;entryX=0.326;entryY=1.067;entryDx=0;entryDy=0;entryPerimeter=0;startArrow=none;" edge="1" parent="1" source="LJxD5BHA2ur4M35lmVV7-28" target="LJxD5BHA2ur4M35lmVV7-4">
          <mxGeometry width="50" height="50" relative="1" as="geometry">
            <mxPoint x="630" y="450" as="sourcePoint" />
            <mxPoint x="680" y="400" as="targetPoint" />
          </mxGeometry>
        </mxCell>
        <mxCell id="LJxD5BHA2ur4M35lmVV7-28" value="" style="html=1;shadow=0;dashed=0;align=center;verticalAlign=middle;shape=mxgraph.arrows2.arrow;dy=0.6;dx=40;direction=north;notch=0;" vertex="1" parent="1">
          <mxGeometry x="625" y="330" width="20" height="40" as="geometry" />
        </mxCell>
        <mxCell id="LJxD5BHA2ur4M35lmVV7-29" value="" style="endArrow=none;dashed=1;html=1;dashPattern=1 3;strokeWidth=2;rounded=0;" edge="1" parent="1" target="LJxD5BHA2ur4M35lmVV7-28">
          <mxGeometry width="50" height="50" relative="1" as="geometry">
            <mxPoint x="630" y="450" as="sourcePoint" />
            <mxPoint x="634.98" y="336.03" as="targetPoint" />
            <Array as="points">
              <mxPoint x="630" y="410" />
            </Array>
          </mxGeometry>
        </mxCell>
        <mxCell id="LJxD5BHA2ur4M35lmVV7-30" value="Personnel" style="text;html=1;strokeColor=none;fillColor=none;align=center;verticalAlign=middle;whiteSpace=wrap;rounded=0;" vertex="1" parent="1">
          <mxGeometry x="50" y="215" width="60" height="30" as="geometry" />
        </mxCell>
        <mxCell id="LJxD5BHA2ur4M35lmVV7-31" value="Vehicles" style="text;html=1;strokeColor=none;fillColor=none;align=center;verticalAlign=middle;whiteSpace=wrap;rounded=0;" vertex="1" parent="1">
          <mxGeometry x="320" y="215" width="60" height="30" as="geometry" />
        </mxCell>
        <mxCell id="LJxD5BHA2ur4M35lmVV7-32" value="Parts" style="text;html=1;strokeColor=none;fillColor=none;align=center;verticalAlign=middle;whiteSpace=wrap;rounded=0;" vertex="1" parent="1">
          <mxGeometry x="600" y="215" width="60" height="30" as="geometry" />
        </mxCell>
        <mxCell id="LJxD5BHA2ur4M35lmVV7-33" value="Partners" style="text;html=1;strokeColor=none;fillColor=none;align=center;verticalAlign=middle;whiteSpace=wrap;rounded=0;" vertex="1" parent="1">
          <mxGeometry x="160" y="425" width="60" height="30" as="geometry" />
        </mxCell>
        <mxCell id="LJxD5BHA2ur4M35lmVV7-34" value="Maintenance" style="text;html=1;strokeColor=none;fillColor=none;align=center;verticalAlign=middle;whiteSpace=wrap;rounded=0;" vertex="1" parent="1">
          <mxGeometry x="500" y="425" width="60" height="30" as="geometry" />
        </mxCell>
        <mxCell id="LJxD5BHA2ur4M35lmVV7-35" value="+ Hire()&lt;br&gt;+Leave()&lt;br&gt;+Auth()&lt;br&gt;+Logout()" style="text;html=1;strokeColor=none;fillColor=none;align=center;verticalAlign=middle;whiteSpace=wrap;rounded=0;" vertex="1" parent="1">
          <mxGeometry x="30" y="260" width="60" height="30" as="geometry" />
        </mxCell>
        <mxCell id="LJxD5BHA2ur4M35lmVV7-36" value="+Assign()&lt;br&gt;+Maintain()&lt;br&gt;+Buy()&lt;br&gt;+Sell()" style="text;html=1;strokeColor=none;fillColor=none;align=center;verticalAlign=middle;whiteSpace=wrap;rounded=0;" vertex="1" parent="1">
          <mxGeometry x="310" y="260" width="60" height="30" as="geometry" />
        </mxCell>
        <mxCell id="LJxD5BHA2ur4M35lmVV7-37" value="+Assembly()" style="text;html=1;strokeColor=none;fillColor=none;align=center;verticalAlign=middle;whiteSpace=wrap;rounded=0;" vertex="1" parent="1">
          <mxGeometry x="585" y="260" width="60" height="30" as="geometry" />
        </mxCell>
        <mxCell id="LJxD5BHA2ur4M35lmVV7-38" value="+AddContract()&lt;br&gt;+DeleteContract()" style="text;html=1;strokeColor=none;fillColor=none;align=center;verticalAlign=middle;whiteSpace=wrap;rounded=0;" vertex="1" parent="1">
          <mxGeometry x="170" y="470" width="60" height="30" as="geometry" />
        </mxCell>
        <mxCell id="LJxD5BHA2ur4M35lmVV7-39" value="+Start()&lt;br&gt;+Finish()&lt;br&gt;+Supply()" style="text;html=1;strokeColor=none;fillColor=none;align=center;verticalAlign=middle;whiteSpace=wrap;rounded=0;" vertex="1" parent="1">
          <mxGeometry x="490" y="470" width="60" height="30" as="geometry" />
        </mxCell>
        <mxCell id="LJxD5BHA2ur4M35lmVV7-40" value="&lt;font style=&quot;&quot;&gt;&lt;font style=&quot;font-size: 24px;&quot;&gt;Package diagram&lt;/font&gt;&lt;br&gt;&lt;span style=&quot;font-size: 14px;&quot;&gt;Project: Fleet management system&lt;/span&gt;&lt;br&gt;&lt;/font&gt;" style="text;html=1;strokeColor=none;fillColor=none;align=center;verticalAlign=middle;whiteSpace=wrap;rounded=0;" vertex="1" parent="1">
          <mxGeometry x="480" y="90" width="330" height="50" as="geometry" />
        </mxCell>
      </root>
    </mxGraphModel>
  </diagram>
</mxfile>
